<svg width="23" height="23" viewBox="0 0 23 23" fill="none" xmlns="http://www.w3.org/2000/svg">
<g id="ei:envelope">
<path id="Vector" opacity="0.9" d="M14.7723 11.1522L19.3585 15.7384L18.7076 16.3889L14.1214 11.8027L14.7723 11.1522ZM8.554 11.172L9.20444 11.8224L4.65044 16.3764L4 15.7278L8.554 11.172Z" fill="#959595"/>
<path id="Vector_2" d="M11.4776 14C10.806 14 10.0896 13.7308 9.59701 13.1923L4 7.6282L4.62687 7L10.2239 12.609C10.9403 13.3269 12.0597 13.3269 12.7761 12.609L18.3731 7L19 7.6282L13.3582 13.2372C12.8657 13.7308 12.1493 14 11.4776 14Z" fill="#959595"/>
<path id="Vector_3" d="M18.26 18.96H5.38C4.598 18.96 4 18.362 4 17.58V8.38C4 7.598 4.598 7 5.38 7H18.26C19.042 7 19.64 7.598 19.64 8.38V17.58C19.64 18.362 19.042 18.96 18.26 18.96ZM5.38 7.92C5.104 7.92 4.92 8.104 4.92 8.38V17.58C4.92 17.856 5.104 18.04 5.38 18.04H18.26C18.536 18.04 18.72 17.856 18.72 17.58V8.38C18.72 8.104 18.536 7.92 18.26 7.92H5.38Z" fill="#959595"/>
</g>
</svg>
