<svg width="237" height="34" viewBox="0 0 237 34" fill="none" xmlns="http://www.w3.org/2000/svg">
<g id="Group 3">
<path id="Path 3" d="M0.662109 25.6691V0.851074H6.05111L13.9571 16.5931L21.7571 0.851074H27.1471V25.6691H22.6081V8.54407L15.6931 22.1201H12.1131L5.19911 8.54108V25.6661L0.662109 25.6691Z" fill="#1A1919"/>
<path id="Path 4" d="M34.06 33.4691L38.137 24.498H37.074L30.231 8.08301H35.159L40.087 20.457L45.228 8.08301H50.049L38.881 33.4691H34.06Z" fill="#1A1919"/>
<path id="Path 5" d="M53.1333 25.6692V0.851158H62.2453C63.9394 0.788692 65.6237 1.13547 67.1553 1.86214C68.3687 2.46444 69.3749 3.41493 70.0453 4.59212C70.6889 5.75822 71.0189 7.07135 71.0033 8.40316C71.0159 9.87151 70.6034 11.3121 69.8153 12.5512C68.939 13.8678 67.6274 14.8342 66.1103 15.2812L71.2523 25.6692H66.0403L61.4313 15.8831H57.6723V25.6692H53.1333ZM57.6723 12.5512H61.9623C62.5634 12.6028 63.1687 12.5319 63.7416 12.3429C64.3145 12.1538 64.8431 11.8504 65.2953 11.4511C65.6566 11.0612 65.9367 10.6033 66.1192 10.104C66.3017 9.60476 66.383 9.07418 66.3583 8.54317C66.3833 8.02453 66.3036 7.50617 66.1241 7.01894C65.9446 6.53172 65.6688 6.08561 65.3133 5.70718C64.8475 5.31442 64.3083 5.01806 63.7271 4.83541C63.1458 4.65276 62.534 4.58742 61.9273 4.64315H57.6723V12.5512Z" fill="#17594A"/>
<path id="Path 6" d="M82.6004 26.0951C80.9575 26.1265 79.334 25.7357 77.8854 24.9601C76.5311 24.2213 75.4128 23.1153 74.6594 21.7691C73.8578 20.316 73.4539 18.6772 73.4884 17.0181C73.4569 15.3276 73.8531 13.6565 74.6404 12.1601C75.3736 10.779 76.479 9.63103 77.8314 8.84611C79.2961 8.02746 80.9538 7.61712 82.6314 7.65806C84.2294 7.62672 85.8073 8.01828 87.2054 8.79307C88.5018 9.52473 89.5737 10.5967 90.3054 11.8931C91.0555 13.2294 91.4404 14.7397 91.4214 16.2721C91.4214 16.5331 91.4154 16.8041 91.4044 17.0881C91.3934 17.3721 91.3744 17.6671 91.3504 17.9741H77.9874C78.0012 18.5801 78.1353 19.1773 78.3818 19.7311C78.6283 20.2849 78.9823 20.7842 79.4234 21.2001C80.2806 21.9782 81.4039 22.3974 82.5614 22.3711C83.3798 22.3989 84.1881 22.1828 84.8834 21.7501C85.4929 21.3549 85.9782 20.7953 86.2834 20.1361H90.8914C90.5588 21.2504 89.9975 22.283 89.2434 23.1681C88.4679 24.0836 87.4994 24.8161 86.4074 25.3131C85.2106 25.8485 83.9112 26.1154 82.6004 26.0951ZM82.6354 11.3461C81.5781 11.3289 80.5443 11.6587 79.6924 12.2851C78.7963 12.9865 78.2108 14.011 78.0614 15.1391H86.8174C86.8055 14.6154 86.6861 14.0997 86.4666 13.624C86.2471 13.1484 85.9322 12.7229 85.5414 12.3741C84.7346 11.6786 83.6959 11.3117 82.6314 11.3461H82.6354Z" fill="#17594A"/>
<path id="Path 7" d="M101.315 26.095C100.035 26.1421 98.7607 25.8933 97.5921 25.368C96.6971 24.9501 95.9451 24.2778 95.4301 23.435C94.9565 22.6296 94.7114 21.7103 94.7211 20.776C94.7029 20.0098 94.8669 19.2503 95.1996 18.5599C95.5324 17.8695 96.0244 17.268 96.6351 16.805C97.9118 15.789 99.8261 15.281 102.378 15.281H106.845V14.855C106.887 14.3627 106.816 13.8674 106.638 13.4066C106.459 12.9457 106.179 12.5314 105.817 12.195C105.095 11.6159 104.189 11.3144 103.264 11.345C102.414 11.3252 101.577 11.5531 100.854 12.001C100.517 12.2143 100.228 12.4968 100.008 12.8299C99.788 13.1629 99.641 13.5389 99.5771 13.933H95.1451C95.2392 12.7186 95.6893 11.5589 96.4391 10.599C97.2025 9.63996 98.1964 8.88996 99.3281 8.41902C100.586 7.89584 101.938 7.63616 103.3 7.65602C105.438 7.53513 107.545 8.20424 109.221 9.53603C109.955 10.2055 110.53 11.0304 110.904 11.9505C111.278 12.8705 111.441 13.8625 111.383 14.854V25.667H107.519L107.094 22.831C106.572 23.779 105.822 24.5827 104.913 25.17C103.831 25.8257 102.579 26.1475 101.315 26.095ZM102.343 22.549C102.912 22.5803 103.481 22.4817 104.006 22.2606C104.531 22.0395 104.999 21.7018 105.374 21.273C106.118 20.3713 106.592 19.2775 106.74 18.118H102.876C101.964 18.0361 101.05 18.2675 100.287 18.774C100.042 18.9652 99.8446 19.2101 99.7094 19.4898C99.5742 19.7694 99.505 20.0764 99.5071 20.387C99.4924 20.6977 99.5562 21.0071 99.6925 21.2867C99.8288 21.5663 100.033 21.8072 100.287 21.987C100.895 22.3888 101.615 22.5858 102.343 22.549Z" fill="#17594A"/>
<path id="Path 8" d="M115.709 25.6741V0.14209H120.248V25.6741H115.709Z" fill="#17594A"/>
<path id="Path 9" d="M133.471 26.0942C131.815 26.1263 130.172 25.8059 128.65 25.1542C127.32 24.5822 126.177 23.6489 125.35 22.4602C124.517 21.1929 124.085 19.7045 124.109 18.1882H128.895C128.919 19.2906 129.373 20.34 130.159 21.1132C131.013 21.8224 132.073 22.2365 133.181 22.294C134.29 22.3515 135.387 22.0493 136.31 21.4322C136.656 21.155 136.933 20.8007 137.117 20.3975C137.302 19.9943 137.39 19.5534 137.374 19.1102C137.399 18.6698 137.328 18.2292 137.166 17.8189C137.003 17.4087 136.754 17.0386 136.435 16.7342C135.704 16.1086 134.853 15.6381 133.935 15.3512L130.603 14.2162C128.964 13.7195 127.465 12.8454 126.225 11.6642C125.711 11.1073 125.313 10.4537 125.055 9.7416C124.796 9.02948 124.681 8.27299 124.718 7.5162C124.658 6.17851 125.024 4.8563 125.764 3.7402C126.508 2.669 127.532 1.82286 128.724 1.29421C130.102 0.718454 131.582 0.423447 133.076 0.426538C134.57 0.429628 136.048 0.73076 137.424 1.31222C138.625 1.85098 139.655 2.70958 140.402 3.79421C141.143 4.92182 141.543 6.23904 141.555 7.58822H136.698C136.674 6.7123 136.312 5.87974 135.687 5.26522C135.33 4.91795 134.904 4.64868 134.438 4.47463C133.971 4.30059 133.473 4.22551 132.976 4.25417C132.084 4.20146 131.2 4.45866 130.476 4.9822C130.14 5.24095 129.872 5.5781 129.696 5.9642C129.52 6.35029 129.441 6.77357 129.466 7.19717C129.448 7.56188 129.508 7.92624 129.643 8.26571C129.777 8.60518 129.983 8.91191 130.246 9.16518C130.867 9.70944 131.59 10.1251 132.373 10.3882C133.271 10.7215 134.299 11.0762 135.458 11.4522C136.622 11.8491 137.749 12.3473 138.826 12.9412C139.813 13.4813 140.652 14.2544 141.272 15.1932C141.927 16.2762 142.248 17.5285 142.194 18.7932C142.201 20.0668 141.857 21.3179 141.201 22.4092C140.493 23.5624 139.473 24.4908 138.258 25.0862C136.766 25.8012 135.124 26.1469 133.471 26.0942Z" fill="#8EAC50"/>
<path id="Path 10" d="M154.673 26.0952C153.014 26.1296 151.375 25.7257 149.922 24.9242C148.562 24.1556 147.439 23.0273 146.677 21.6632C145.897 20.1884 145.49 18.5454 145.49 16.8772C145.49 15.2089 145.897 13.566 146.677 12.0912C147.439 10.7268 148.562 9.59821 149.922 8.82918C151.375 8.02814 153.014 7.62422 154.673 7.65816C156.707 7.5918 158.704 8.20978 160.345 9.41316C161.895 10.6037 162.944 12.3297 163.288 14.2532H158.499C158.288 13.4401 157.791 12.7302 157.099 12.2532C156.228 11.6788 155.18 11.4329 154.144 11.5595C153.108 11.686 152.151 12.1768 151.443 12.9442C150.591 14.0795 150.131 15.4604 150.131 16.8797C150.131 18.2989 150.591 19.6799 151.443 20.8152C151.841 21.2676 152.333 21.6285 152.884 21.8732C153.434 22.118 154.031 22.2408 154.634 22.2332C155.509 22.2543 156.369 22.0069 157.099 21.5242C157.8 21.0469 158.299 20.3269 158.499 19.5032H163.285C162.913 21.4015 161.868 23.1016 160.342 24.2902C158.715 25.5236 156.714 26.1608 154.673 26.0952Z" fill="#8EAC50"/>
<path id="Path 11" d="M167.329 25.6741V0.14209H171.868V10.7741C172.449 9.81307 173.275 9.02349 174.261 8.48608C175.323 7.91683 176.513 7.62998 177.717 7.65308C178.659 7.59841 179.602 7.75474 180.476 8.1106C181.35 8.46645 182.134 9.01288 182.77 9.71008C183.963 11.0814 184.559 13.0908 184.56 15.7381V25.6741H180.06V16.1741C180.141 14.9491 179.826 13.7307 179.16 12.6991C178.817 12.2824 178.379 11.9549 177.882 11.7449C177.384 11.5348 176.844 11.4485 176.306 11.4931C175.712 11.4777 175.121 11.59 174.573 11.8223C174.026 12.0547 173.535 12.4017 173.133 12.8401C172.243 13.8829 171.792 15.2305 171.875 16.5991V25.6741H167.329Z" fill="#8EAC50"/>
<path id="Path 12" d="M197.323 26.0952C195.716 26.1195 194.131 25.7154 192.732 24.9242C191.382 24.1549 190.267 23.0337 189.505 21.6802C188.692 20.2131 188.282 18.557 188.317 16.8802C188.282 15.2011 188.699 13.5434 189.523 12.0801C190.295 10.7286 191.415 9.60858 192.767 8.83618C194.169 8.06829 195.742 7.66577 197.34 7.66577C198.939 7.66577 200.512 8.06829 201.914 8.83618C203.263 9.60627 204.378 10.7272 205.141 12.0801C205.921 13.5613 206.328 15.2102 206.328 16.8842C206.328 18.5581 205.921 20.207 205.141 21.6882C204.375 23.0447 203.253 24.1663 201.897 24.9322C200.501 25.7161 198.923 26.1172 197.323 26.0952ZM197.323 22.1602C197.901 22.1629 198.473 22.0462 199.004 21.8173C199.535 21.5884 200.012 21.2524 200.407 20.8301C201.259 19.6884 201.719 18.3018 201.719 16.8771C201.719 15.4524 201.259 14.0659 200.407 12.9242C200.012 12.5044 199.536 12.1699 199.007 11.9413C198.478 11.7126 197.908 11.5947 197.331 11.5947C196.755 11.5947 196.185 11.7126 195.656 11.9413C195.127 12.1699 194.651 12.5044 194.256 12.9242C193.415 14.0707 192.962 15.4554 192.962 16.8771C192.962 18.2989 193.415 19.6837 194.256 20.8301C194.647 21.253 195.121 21.5897 195.649 21.8187C196.177 22.0477 196.747 22.164 197.323 22.1602Z" fill="#8EAC50"/>
<path id="Path 13" d="M218.808 26.095C217.201 26.1192 215.616 25.7151 214.217 24.9241C212.867 24.1548 211.752 23.0336 210.99 21.6801C210.177 20.2129 209.768 18.5568 209.803 16.8801C209.768 15.201 210.185 13.5433 211.009 12.08C211.781 10.7284 212.901 9.60826 214.253 8.83606C215.655 8.06808 217.228 7.66553 218.826 7.66553C220.425 7.66553 221.998 8.06808 223.4 8.83606C224.748 9.60646 225.864 10.7274 226.627 12.08C227.407 13.5612 227.814 15.2101 227.814 16.884C227.814 18.558 227.407 20.2068 226.627 21.688C225.861 23.0446 224.739 24.1663 223.382 24.9321C221.986 25.7161 220.408 26.1173 218.808 26.095ZM218.808 22.16C219.386 22.1626 219.958 22.0458 220.489 21.817C221.02 21.5881 221.498 21.2521 221.893 20.83C222.745 19.6881 223.205 18.3016 223.205 16.877C223.205 15.4524 222.745 14.066 221.893 12.9241C221.498 12.5043 221.021 12.1698 220.492 11.9411C219.963 11.7124 219.393 11.5945 218.817 11.5945C218.241 11.5945 217.67 11.7124 217.141 11.9411C216.612 12.1698 216.136 12.5043 215.741 12.9241C214.9 14.0707 214.447 15.4553 214.447 16.877C214.447 18.2987 214.9 19.6834 215.741 20.83C216.131 21.2528 216.606 21.5895 217.134 21.8185C217.662 22.0475 218.232 22.1638 218.808 22.16Z" fill="#8EAC50"/>
<path id="Path 14" d="M231.853 25.6741V0.14209H236.392V25.6741H231.853Z" fill="#8EAC50"/>
</g>
</svg>
