<svg width="40" height="44" viewBox="0 0 40 44" fill="none" xmlns="http://www.w3.org/2000/svg">
<g id="Group 122" clip-path="url(#clip0_1_229)">
<g id="Group 16">
<g id="Group 15">
<g id="Group 13">
<path id="Path 15" d="M5.54901 32.562C6.6465 32.562 7.71931 32.8875 8.63184 33.4972C9.54436 34.1069 10.2556 34.9736 10.6756 35.9875C11.0956 37.0015 11.2055 38.1172 10.9914 39.1936C10.7773 40.27 10.2488 41.2587 9.47272 42.0347C8.69668 42.8108 7.70793 43.3393 6.63153 43.5534C5.55513 43.7675 4.43942 43.6576 3.42548 43.2376C2.41153 42.8176 1.54491 42.1064 0.935181 41.1939C0.325449 40.2813 0 39.2085 0 38.111C0 36.6393 0.584605 35.2279 1.62524 34.1873C2.66588 33.1466 4.07732 32.562 5.54901 32.562Z" fill="#213363"/>
<path id="Path 16" d="M5.54901 0C6.6465 0 7.71931 0.325449 8.63184 0.935181C9.54436 1.54491 10.2556 2.41154 10.6756 3.42549C11.0956 4.43944 11.2055 5.55516 10.9914 6.63156C10.7773 7.70796 10.2488 8.69669 9.47272 9.47273C8.69668 10.2488 7.70793 10.7773 6.63153 10.9914C5.55513 11.2055 4.43942 11.0956 3.42548 10.6756C2.41153 10.2556 1.54491 9.54439 0.935181 8.63187C0.325449 7.71934 0 6.64648 0 5.549C0 4.07731 0.584605 2.6659 1.62524 1.62526C2.66588 0.58462 4.07732 0 5.54901 0Z" fill="#8EAC50"/>
</g>
<g id="Group 14">
<path id="Path 17" d="M33.5998 32.562C34.6973 32.562 35.7701 32.8875 36.6827 33.4972C37.5952 34.1069 38.3064 34.9736 38.7264 35.9875C39.1464 37.0015 39.2563 38.1172 39.0422 39.1936C38.8281 40.27 38.2995 41.2587 37.5235 42.0347C36.7475 42.8108 35.7588 43.3393 34.6824 43.5534C33.606 43.7675 32.4902 43.6576 31.4763 43.2376C30.4623 42.8176 29.5957 42.1064 28.986 41.1939C28.3762 40.2813 28.0508 39.2085 28.0508 38.111C28.0508 36.6393 28.6354 35.2279 29.6761 34.1873C30.7167 33.1466 32.1281 32.562 33.5998 32.562Z" fill="#8EAC50"/>
<path id="Path 18" d="M33.5998 0C34.6973 0 35.7701 0.325449 36.6827 0.935181C37.5952 1.54491 38.3064 2.41154 38.7264 3.42549C39.1464 4.43944 39.2563 5.55516 39.0422 6.63156C38.8281 7.70796 38.2995 8.69669 37.5235 9.47273C36.7475 10.2488 35.7588 10.7773 34.6824 10.9914C33.606 11.2055 32.4902 11.0956 31.4763 10.6756C30.4623 10.2556 29.5957 9.54439 28.986 8.63187C28.3762 7.71934 28.0508 6.64648 28.0508 5.549C28.0508 4.07731 28.6354 2.6659 29.6761 1.62526C30.7167 0.58462 32.1281 0 33.5998 0Z" fill="#213363"/>
</g>
</g>
</g>
</g>
<defs>
<clipPath id="clip0_1_229">
<rect width="39.149" height="43.66" fill="white"/>
</clipPath>
</defs>
</svg>
