<svg width="32" height="32" viewBox="0 0 32 32" fill="none" xmlns="http://www.w3.org/2000/svg">
<g id="Group 54 1" clip-path="url(#clip0_1_325)">
<g id="Group 54">
<path id="Ellipse 5" d="M16 32C24.8366 32 32 24.8366 32 16C32 7.16344 24.8366 0 16 0C7.16344 0 0 7.16344 0 16C0 24.8366 7.16344 32 16 32Z" fill="#8EAC50"/>
<path id="Icon awesome-check" d="M13.1881 21.5155L8.03907 16.3665C7.89056 16.218 7.80713 16.0166 7.80713 15.8065C7.80713 15.5965 7.89056 15.3951 8.03907 15.2465L9.15907 14.1265C9.3076 13.978 9.50903 13.8946 9.71907 13.8946C9.92911 13.8946 10.1305 13.978 10.2791 14.1265L13.7471 17.5945L21.1771 10.1655C21.3256 10.017 21.527 9.93359 21.7371 9.93359C21.9471 9.93359 22.1485 10.017 22.2971 10.1655L23.4171 11.2855C23.5656 11.4341 23.649 11.6355 23.649 11.8455C23.649 12.0556 23.5656 12.257 23.4171 12.4055L14.3071 21.5155C14.1586 21.6637 13.9574 21.747 13.7476 21.747C13.5378 21.747 13.3366 21.6637 13.1881 21.5155Z" fill="white"/>
</g>
</g>
<defs>
<clipPath id="clip0_1_325">
<rect width="32" height="32" fill="white"/>
</clipPath>
</defs>
</svg>
