<svg width="89" height="70" viewBox="0 0 89 70" fill="none" xmlns="http://www.w3.org/2000/svg">
<g id="Group 2">
<g id="Group 1">
<path id="Path 1" d="M88.0711 47.9649C87.4195 46.4008 86.1762 45.1574 84.6121 44.5059V22.0689C84.911 21.6217 85.113 21.1169 85.2051 20.5869C85.2017 20.0931 85.0614 19.6099 84.7998 19.1912C84.5381 18.7724 84.1654 18.4344 83.7231 18.2149L43.5921 0.225922C43.2838 0.0769048 42.9459 -0.000488281 42.6036 -0.000488281C42.2612 -0.000488281 41.9233 0.0769048 41.6151 0.225922L1.49206 18.2149C1.02537 18.4021 0.630233 18.7327 0.363676 19.159C0.0971189 19.5854 -0.0270654 20.0854 0.00906167 20.5869C0.0134938 21.083 0.18008 21.564 0.483412 21.9565C0.786743 22.349 1.21016 22.6315 1.68905 22.7609L15.4281 27.5049V45.2959C15.428 45.6795 15.5172 46.0579 15.6887 46.401C15.8602 46.7442 16.1092 47.0427 16.4161 47.2729C16.7387 47.511 17.1164 47.6633 17.5139 47.7158C17.9114 47.7683 18.3157 47.7191 18.6891 47.5729C34.0856 41.8396 51.0315 41.8396 66.4281 47.5729L67.3181 47.7729C67.8201 47.7591 68.3047 47.5861 68.7021 47.2789C69.0396 47.0725 69.3175 46.7816 69.5082 46.4348C69.6988 46.0881 69.7956 45.6976 69.7891 45.3019V27.4119L79.6731 24.1509V44.5119C78.5002 45.0005 77.4985 45.8259 76.7948 46.8838C76.091 47.9417 75.7168 49.1845 75.7193 50.4551C75.7219 51.7257 76.1013 52.9669 76.8093 54.0219C77.5174 55.0769 78.5224 55.8983 79.6973 56.3821C80.8722 56.8659 82.1641 56.9904 83.4098 56.7399C84.6554 56.4894 85.7988 55.8752 86.6953 54.9749C87.5919 54.0745 88.2013 52.9285 88.4465 51.6819C88.6918 50.4352 88.5618 49.1437 88.0731 47.9709L88.0711 47.9649ZM30.9611 37.5649H26.2011V32.8059H30.9611V37.5649ZM30.9611 30.8099H26.2011V26.0499H30.9611V30.8099ZM37.5271 37.5649H32.7671V32.8059H37.5271V37.5649ZM37.5271 30.8099H32.7671V26.0499H37.5271V30.8099Z" fill="white"/>
<path id="Path 2" d="M43.5779 46.075C34.8986 45.9071 26.2759 47.5062 18.2339 50.775C18.7039 52.275 22.4079 63.4479 33.9429 67.8749C40.0354 70.2508 46.8132 70.164 52.8429 67.6329C63.5149 62.9629 66.4949 52.37 66.8599 50.981C59.4744 47.9038 51.5771 46.2397 43.5779 46.075ZM42.5869 64.1129H42.4169C39.4582 64.0519 36.626 62.9014 34.4629 60.882L35.5629 59.7209C37.4482 61.5043 39.9411 62.504 42.5362 62.5174C45.1313 62.5308 47.6343 61.5568 49.5379 59.7929L50.6219 60.965C48.4264 62.9734 45.5624 64.0951 42.5869 64.1129Z" fill="white"/>
</g>
</g>
</svg>
