<svg width="113" height="20" viewBox="0 0 113 20" fill="none" xmlns="http://www.w3.org/2000/svg">
<g id="Group 123">
<path id="Vector" d="M112.92 4C112.15 4.35 111.32 4.58 110.46 4.69C111.34 4.16 112.02 3.32 112.34 2.31C111.51 2.81 110.59 3.16 109.62 3.36C108.83 2.5 107.72 2 106.46 2C104.11 2 102.19 3.92 102.19 6.29C102.19 6.63 102.23 6.96 102.3 7.27C98.74 7.09 95.57 5.38 93.46 2.79C93.09 3.42 92.88 4.16 92.88 4.94C92.88 6.43 93.63 7.75 94.79 8.5C94.08 8.5 93.42 8.3 92.84 8V8.03C92.84 10.11 94.32 11.85 96.28 12.24C95.6507 12.4122 94.9901 12.4362 94.35 12.31C94.6216 13.1625 95.1535 13.9084 95.871 14.4429C96.5885 14.9775 97.4554 15.2737 98.35 15.29C96.8336 16.4904 94.954 17.1393 93.02 17.13C92.68 17.13 92.34 17.11 92 17.07C93.9 18.29 96.16 19 98.58 19C106.46 19 110.79 12.46 110.79 6.79C110.79 6.6 110.79 6.42 110.78 6.23C111.62 5.63 112.34 4.87 112.92 4Z" fill="white"/>
<path id="Vector_2" d="M7 11.5H9.5L10.5 7.5H7V5.5C7 4.47 7 3.5 9 3.5H10.5V0.14C10.174 0.0970001 8.943 0 7.643 0C4.928 0 3 1.657 3 4.7V7.5H0V11.5H3V20H7V11.5Z" fill="white"/>
<path id="Vector_3" d="M52.0286 0.0012304C52.7583 -0.00156983 53.488 0.00576429 54.2176 0.0232305L54.4116 0.0302304C54.6356 0.0382304 54.8566 0.0482304 55.1236 0.0602304C56.1876 0.11023 56.9136 0.278231 57.5506 0.525231C58.2106 0.779231 58.7666 1.12323 59.3226 1.67923C59.831 2.17884 60.2244 2.78318 60.4756 3.45023C60.7226 4.08723 60.8906 4.81423 60.9406 5.87823C60.9526 6.14423 60.9626 6.36623 60.9706 6.59023L60.9766 6.78423C60.9943 7.51342 61.002 8.24283 60.9996 8.97223L61.0006 9.71823V11.0282C61.003 11.758 60.9954 12.4877 60.9776 13.2172L60.9716 13.4112C60.9636 13.6352 60.9536 13.8562 60.9416 14.1232C60.8916 15.1872 60.7216 15.9132 60.4756 16.5502C60.2252 17.218 59.8317 17.8228 59.3226 18.3222C58.8225 18.8306 58.2179 19.224 57.5506 19.4752C56.9136 19.7222 56.1876 19.8902 55.1236 19.9402C54.8566 19.9522 54.6356 19.9622 54.4116 19.9702L54.2176 19.9762C53.4881 19.994 52.7583 20.0017 52.0286 19.9992L51.2826 20.0002H49.9736C49.2438 20.0027 48.5141 19.995 47.7846 19.9772L47.5906 19.9712C47.3532 19.9626 47.1158 19.9526 46.8786 19.9412C45.8146 19.8912 45.0886 19.7212 44.4506 19.4752C43.7833 19.2246 43.1788 18.8311 42.6796 18.3222C42.1706 17.8225 41.7768 17.2178 41.5256 16.5502C41.2786 15.9132 41.1106 15.1872 41.0606 14.1232C41.0494 13.8859 41.0394 13.6486 41.0306 13.4112L41.0256 13.2172C41.0071 12.4877 40.9988 11.758 41.0006 11.0282V8.97223C40.9978 8.24283 41.0051 7.51343 41.0226 6.78423L41.0296 6.59023C41.0376 6.36623 41.0476 6.14423 41.0596 5.87823C41.1096 4.81323 41.2776 4.08823 41.5246 3.45023C41.7759 2.78285 42.1705 2.17868 42.6806 1.68023C43.1795 1.17098 43.7835 0.776803 44.4506 0.525231C45.0886 0.278231 45.8136 0.11023 46.8786 0.0602304L47.5906 0.0302304L47.7846 0.0252306C48.5138 0.00680338 49.2432 -0.00153085 49.9726 0.000230468L52.0286 0.0012304ZM51.0006 5.00123C50.3381 4.99186 49.6803 5.11425 49.0656 5.3613C48.4508 5.60834 47.8912 5.97511 47.4194 6.44029C46.9476 6.90546 46.573 7.45977 46.3173 8.07099C46.0616 8.68222 45.9299 9.33817 45.9299 10.0007C45.9299 10.6633 46.0616 11.3192 46.3173 11.9305C46.573 12.5417 46.9476 13.096 47.4194 13.5612C47.8912 14.0264 48.4508 14.3931 49.0656 14.6402C49.6803 14.8872 50.3381 15.0096 51.0006 15.0002C52.3267 15.0002 53.5984 14.4734 54.5361 13.5358C55.4738 12.5981 56.0006 11.3263 56.0006 10.0002C56.0006 8.67415 55.4738 7.40238 54.5361 6.4647C53.5984 5.52701 52.3267 5.00123 51.0006 5.00123ZM51.0006 7.00123C51.3991 6.99389 51.7951 7.06603 52.1654 7.21344C52.5357 7.36085 52.8729 7.58057 53.1574 7.85978C53.4418 8.13898 53.6678 8.47206 53.822 8.83957C53.9763 9.20708 54.0558 9.60165 54.0558 10.0002C54.0559 10.3988 53.9766 10.7934 53.8224 11.1609C53.6683 11.5285 53.4424 11.8617 53.1581 12.141C52.8737 12.4203 52.5366 12.6401 52.1663 12.7876C51.796 12.9352 51.4001 13.0074 51.0016 13.0002C50.2059 13.0002 49.4429 12.6842 48.8803 12.1216C48.3176 11.5589 48.0016 10.7959 48.0016 10.0002C48.0016 9.20458 48.3176 8.44152 48.8803 7.87891C49.4429 7.3163 50.2059 7.00023 51.0016 7.00023L51.0006 7.00123ZM56.2506 3.50123C55.928 3.51414 55.6229 3.65138 55.3992 3.8842C55.1755 4.11702 55.0506 4.42736 55.0506 4.75023C55.0506 5.0731 55.1755 5.38344 55.3992 5.61626C55.6229 5.84908 55.928 5.98632 56.2506 5.99923C56.5821 5.99923 56.9 5.86753 57.1345 5.63311C57.3689 5.39869 57.5006 5.08075 57.5006 4.74923C57.5006 4.41771 57.3689 4.09977 57.1345 3.86535C56.9 3.63093 56.5821 3.49923 56.2506 3.49923V3.50123Z" fill="white"/>
</g>
</svg>
