<svg width="56" height="58" viewBox="0 0 56 58" fill="none" xmlns="http://www.w3.org/2000/svg">
<g id="Group 127" clip-path="url(#clip0_1_144)">
<g id="Group 16">
<g id="Group 15">
<g id="Group 13">
<path id="Path 15" d="M21.0868 44.9994C22.0373 44.4507 23.1291 44.1961 24.2242 44.2679C25.3194 44.3397 26.3686 44.7346 27.2393 45.4027C28.11 46.0708 28.7631 46.9821 29.1159 48.0213C29.4686 49.0606 29.5053 50.1811 29.2212 51.2412C28.9372 52.3013 28.3451 53.2533 27.52 53.977C26.6949 54.7006 25.6737 55.1633 24.5856 55.3065C23.4975 55.4498 22.3914 55.2671 21.4071 54.7817C20.4228 54.2963 19.6045 53.5299 19.0557 52.5795C18.3199 51.305 18.1205 49.7904 18.5014 48.3688C18.8823 46.9473 19.8123 45.7353 21.0868 44.9994Z" fill="white"/>
<path id="Path 16" d="M4.80558 16.8C5.75604 16.2512 6.84784 15.9967 7.94298 16.0684C9.03812 16.1402 10.0874 16.5351 10.9581 17.2032C11.8288 17.8713 12.4818 18.7826 12.8346 19.8219C13.1874 20.8611 13.224 21.9816 12.94 23.0417C12.6559 24.1018 12.0639 25.0539 11.2388 25.7775C10.4136 26.5011 9.39246 26.9638 8.30436 27.1071C7.21626 27.2503 6.11013 27.0677 5.12582 26.5823C4.14152 26.0969 3.32324 25.3305 2.7745 24.38C2.03865 23.1055 1.83923 21.5909 2.22013 20.1694C2.60103 18.7478 3.53107 17.5358 4.80558 16.8Z" fill="white"/>
</g>
<g id="Group 14">
<path id="Path 17" d="M45.3793 30.974C46.3298 30.4253 47.4216 30.1707 48.5168 30.2425C49.6119 30.3143 50.6611 30.7092 51.5318 31.3773C52.4025 32.0454 53.0556 32.9567 53.4083 33.9959C53.7611 35.0352 53.7978 36.1557 53.5137 37.2158C53.2297 38.2759 52.6377 39.2279 51.8125 39.9516C50.9874 40.6752 49.9662 41.1379 48.8781 41.2811C47.79 41.4244 46.6839 41.2418 45.6995 40.7563C44.7152 40.2709 43.897 39.5046 43.3482 38.5541C42.6124 37.2796 42.413 35.7649 42.7939 34.3434C43.1748 32.9219 44.1048 31.7099 45.3793 30.974Z" fill="white"/>
<path id="Path 18" d="M29.0986 2.77457C30.049 2.22582 31.1409 1.97123 32.236 2.04301C33.3311 2.11479 34.3804 2.50973 35.2511 3.17784C36.1217 3.84594 36.7748 4.75723 37.1276 5.79648C37.4804 6.83572 37.517 7.95625 37.2329 9.01634C36.9489 10.0764 36.3569 11.0285 35.5318 11.7521C34.7066 12.4757 33.6854 12.9384 32.5973 13.0817C31.5092 13.2249 30.4031 13.0423 29.4188 12.5569C28.4345 12.0715 27.6162 11.3051 27.0675 10.3546C26.3316 9.08013 26.1323 7.56548 26.5132 6.14394C26.8941 4.7224 27.824 3.51041 29.0986 2.77457Z" fill="white"/>
</g>
</g>
</g>
</g>
<defs>
<clipPath id="clip0_1_144">
<rect width="39.149" height="43.66" fill="white" transform="translate(0 19.5745) rotate(-30)"/>
</clipPath>
</defs>
</svg>
