<svg width="61" height="61" viewBox="0 0 61 61" fill="none" xmlns="http://www.w3.org/2000/svg">
<g id="online courses">
<path id="Rectangle 159" d="M43.1682 8.03101H35.1372V12.047H43.1682V8.03101Z" fill="#17594A"/>
<path id="Rectangle 160" d="M41.1602 16.063H35.1372V20.079H41.1602V16.063Z" fill="#17594A"/>
<path id="Path 95" d="M58.227 10.039H50.2V2.008C50.2 1.74397 50.1479 1.48253 50.0468 1.23865C49.9456 0.994768 49.7973 0.77323 49.6105 0.586718C49.4236 0.400205 49.2017 0.25238 48.9577 0.151704C48.7136 0.0510283 48.452 -0.000521974 48.188 3.98443e-06H36.141C35.0007 0.0015409 33.8739 0.245881 32.8353 0.716769C31.7968 1.18766 30.8705 1.8743 30.118 2.731C29.3654 1.87417 28.4389 1.18746 27.4002 0.716563C26.3615 0.245671 25.2344 0.00139896 24.094 3.98443e-06H12.047C11.5144 3.98443e-06 11.0037 0.211561 10.6271 0.588134C10.2506 0.964707 10.039 1.47545 10.039 2.008V10.039H2.008C1.47545 10.039 0.964703 10.2506 0.58813 10.6271C0.211557 11.0037 0 11.5144 0 12.047V50.2C0.00211622 50.7312 0.214607 51.2399 0.59095 51.6147C0.967294 51.9895 1.47683 52.2 2.008 52.2H18.07V56.216H10.039V60.232H50.2V56.219H42.164V52.2H58.227C58.758 52.1997 59.2673 51.9892 59.6434 51.6144C60.0195 51.2395 60.2319 50.731 60.234 50.2V12.047C60.234 11.5146 60.0226 11.004 59.6462 10.6275C59.2699 10.2509 58.7594 10.0393 58.227 10.039ZM36.141 4.016H46.18V24.094H39.78C37.0623 24.1014 34.4051 24.8964 32.13 26.383V8.031C32.1303 6.96693 32.5528 5.94646 33.3048 5.19368C34.0569 4.44089 35.0769 4.01733 36.141 4.016ZM14.055 4.016H24.094C25.1591 4.016 26.1806 4.43912 26.9337 5.19226C27.6869 5.94541 28.11 6.96689 28.11 8.032V26.383C25.8349 24.8964 23.1777 24.1014 20.46 24.094H14.06L14.055 4.016ZM10.039 14.055V26.1C10.039 26.6326 10.2506 27.1433 10.6271 27.5199C11.0037 27.8964 11.5144 28.108 12.047 28.108H20.46C22.4468 28.1073 24.3891 28.6962 26.041 29.8L28.993 31.8C29.3251 32.0245 29.7167 32.1444 30.1175 32.1444C30.5183 32.1444 30.9099 32.0245 31.242 31.8L34.193 29.8C35.8458 28.6978 37.7884 28.1106 39.775 28.113H48.188C48.4524 28.1135 48.7144 28.0618 48.9588 27.9608C49.2032 27.8598 49.4253 27.7116 49.6122 27.5245C49.7992 27.3375 49.9473 27.1154 50.0482 26.8709C50.1491 26.6264 50.2007 26.3645 50.2 26.1V14.055H56.223V40.155H4.016V14.055H10.039ZM38.148 56.219H22.086V52.2H38.148V56.219ZM4.016 48.188V44.172H56.216V48.188H4.016Z" fill="#17594A"/>
<path id="Rectangle 161" d="M25.0969 8.03101H17.0659V12.047H25.0969V8.03101Z" fill="#17594A"/>
<path id="Rectangle 162" d="M25.0972 16.063H19.0742V20.079H25.0972V16.063Z" fill="#17594A"/>
<path id="Rectangle 163" d="M52 32H44V36H52V32Z" fill="#17594A"/>
<path id="Rectangle 164" d="M16 32H8V36H16V32Z" fill="#17594A"/>
</g>
</svg>
