<svg width="60" height="60" viewBox="0 0 60 60" fill="none" xmlns="http://www.w3.org/2000/svg">
<g id="upload" clip-path="url(#clip0_1_63)">
<g id="upload_2">
<path id="Path 123" d="M58 48H57V22C57 21.4696 56.7893 20.9609 56.4142 20.5858C56.0391 20.2107 55.5304 20 55 20H46V2C46 1.46957 45.7893 0.960859 45.4142 0.585786C45.0391 0.210714 44.5304 0 44 0H20C18.4087 0 16.8826 0.632141 15.7574 1.75736C14.6321 2.88258 14 4.4087 14 6V20H5C4.46957 20 3.96086 20.2107 3.58579 20.5858C3.21071 20.9609 3 21.4696 3 22V48H2C1.46957 48 0.960859 48.2107 0.585786 48.5858C0.210714 48.9609 0 49.4696 0 50V58C0 58.5304 0.210714 59.0391 0.585786 59.4142C0.960859 59.7893 1.46957 60 2 60H58C58.5304 60 59.0391 59.7893 59.4142 59.4142C59.7893 59.0391 60 58.5304 60 58V50C60 49.4696 59.7893 48.9609 59.4142 48.5858C59.0391 48.2107 58.5304 48 58 48ZM20 4H42V30H19C18.6643 30.0025 18.3295 30.036 18 30.1V6C18 5.46957 18.2107 4.96086 18.5858 4.58579C18.9609 4.21071 19.4696 4 20 4ZM18 35C18 34.7348 18.1054 34.4804 18.2929 34.2929C18.4804 34.1054 18.7348 34 19 34H42V40H19C18.7348 40 18.4804 39.8946 18.2929 39.7071C18.1054 39.5196 18 39.2652 18 39V35ZM7 24H14V39C14 40.3261 14.5268 41.5979 15.4645 42.5355C16.4021 43.4732 17.6739 44 19 44H44C44.5304 44 45.0391 43.7893 45.4142 43.4142C45.7893 43.0391 46 42.5304 46 42V24H53V48H7V24ZM56 56H4V52H56V56Z" fill="#17594A"/>
<path id="Path 124" d="M31.9998 17.168V9.98804L27.9998 9.98804V17.168L25.9998 15.168L23.1798 17.988L28.5798 23.408C28.7658 23.5955 28.987 23.7443 29.2307 23.8458C29.4744 23.9474 29.7358 23.9996 29.9998 23.9996C30.2638 23.9996 30.5253 23.9474 30.769 23.8458C31.0127 23.7443 31.2339 23.5955 31.4198 23.408L36.8198 17.988L33.9998 15.168L31.9998 17.168Z" fill="#17594A"/>
</g>
</g>
<defs>
<clipPath id="clip0_1_63">
<rect width="60" height="60" fill="white"/>
</clipPath>
</defs>
</svg>
