<svg width="60" height="60" viewBox="0 0 60 60" fill="none" xmlns="http://www.w3.org/2000/svg">
<g id="video courses" clip-path="url(#clip0_1_49)">
<g id="video courses_2">
<path id="Path 126" d="M60 22V6C60 4.4087 59.3679 2.88258 58.2426 1.75736C57.1174 0.632141 55.5913 0 54 0H30C28.4087 0 26.8826 0.632141 25.7574 1.75736C24.6321 2.88258 24 4.4087 24 6V20H5C4.46957 20 3.96086 20.2107 3.58579 20.5858C3.21071 20.9609 3 21.4696 3 22V48H2C1.46957 48 0.960859 48.2107 0.585786 48.5858C0.210714 48.9609 0 49.4696 0 50V58C0 58.5304 0.210714 59.0391 0.585786 59.4142C0.960859 59.7893 1.46957 60 2 60H58C58.5304 60 59.0391 59.7893 59.4142 59.4142C59.7893 59.0391 60 58.5304 60 58V50C60 49.4696 59.7893 48.9609 59.4142 48.5858C59.0391 48.2107 58.5304 48 58 48H57V27.16C57.9068 26.6365 58.6609 25.8847 59.1872 24.9795C59.7134 24.0743 59.9937 23.0471 60 22ZM28 6C28 5.46957 28.2107 4.96086 28.5858 4.58579C28.9609 4.21071 29.4696 4 30 4H54C54.5304 4 55.0391 4.21071 55.4142 4.58579C55.7893 4.96086 56 5.46957 56 6V22C56 22.5304 55.7893 23.0391 55.4142 23.4142C55.0391 23.7893 54.5304 24 54 24H40V28H43.18L39.42 31.76C39.2999 31.864 39.1533 31.9326 38.9966 31.9584C38.8398 31.9842 38.679 31.966 38.5319 31.9059C38.3849 31.8459 38.2573 31.7462 38.1634 31.6181C38.0695 31.49 38.013 31.3383 38 31.18V26C38 25.4696 37.7893 24.9609 37.4142 24.5858C37.0391 24.2107 36.5304 24 36 24H30C29.4696 24 28.9609 23.7893 28.5858 23.4142C28.2107 23.0391 28 22.5304 28 22V6ZM56 56H4V52H56V56ZM18 34C18 33.6044 18.1173 33.2178 18.3371 32.8889C18.5568 32.56 18.8692 32.3036 19.2346 32.1522C19.6001 32.0009 20.0022 31.9613 20.3902 32.0384C20.7781 32.1156 21.1345 32.3061 21.4142 32.5858C21.6939 32.8655 21.8844 33.2219 21.9616 33.6098C22.0387 33.9978 21.9991 34.3999 21.8478 34.7654C21.6964 35.1308 21.44 35.4432 21.1111 35.6629C20.7822 35.8827 20.3956 36 20 36C19.4696 36 18.9609 35.7893 18.5858 35.4142C18.2107 35.0391 18 34.5304 18 34ZM20 40C21.3261 40 22.5979 40.5268 23.5355 41.4645C24.4732 42.4021 25 43.6739 25 45V48H15V45C15 43.6739 15.5268 42.4021 16.4645 41.4645C17.4021 40.5268 18.6739 40 20 40ZM29 48V45C29 43.4987 28.6227 42.0214 27.9028 40.7039C27.1829 39.3865 26.1434 38.271 24.88 37.46C25.5216 36.5631 25.9036 35.5067 25.984 34.4068C26.0645 33.307 25.8402 32.2063 25.336 31.2256C24.8317 30.2448 24.0669 29.4221 23.1255 28.8476C22.1842 28.2731 21.1028 27.9692 20 27.9692C18.8972 27.9692 17.8158 28.2731 16.8745 28.8476C15.9331 29.4221 15.1683 30.2448 14.6641 31.2256C14.1598 32.2063 13.9355 33.307 14.016 34.4068C14.0964 35.5067 14.4784 36.5631 15.12 37.46C13.8566 38.271 12.8171 39.3865 12.0972 40.7039C11.3773 42.0214 11 43.4987 11 45V48H7V24H24.36C24.7726 25.1671 25.5361 26.178 26.5459 26.8941C27.5556 27.6102 28.7621 27.9965 30 28H34V31.18C34 32.4583 34.5078 33.6843 35.4117 34.5883C36.3157 35.4922 37.5417 36 38.82 36C39.4562 36.0049 40.0868 35.8818 40.6744 35.6378C41.262 35.3938 41.7944 35.0341 42.24 34.58L48.82 28H53V48H29Z" fill="#17594A"/>
<path id="Rectangle 192" d="M52 8H32V12H52V8Z" fill="#17594A"/>
<path id="Rectangle 193" d="M52 16H42V20H52V16Z" fill="#17594A"/>
<path id="Rectangle 194" d="M38 16H32V20H38V16Z" fill="#17594A"/>
</g>
</g>
<defs>
<clipPath id="clip0_1_49">
<rect width="60" height="60" fill="white"/>
</clipPath>
</defs>
</svg>
